<svg xmlns="http://www.w3.org/2000/svg" xmlns:xlink="http://www.w3.org/1999/xlink" width="462.24" height="212.986" viewBox="0 0 462.24 212.986">
  <defs>
    <linearGradient id="linear-gradient" x1="0.5" x2="0.5" y2="1" gradientUnits="objectBoundingBox">
      <stop offset="0" stop-color="#d3d3d3"/>
      <stop offset="1" stop-color="#fff"/>
    </linearGradient>
    <linearGradient id="linear-gradient-2" x1="0.487" y1="-1.312" x2="0.5" y2="1.193" gradientUnits="objectBoundingBox">
      <stop offset="0" stop-color="#6f7276"/>
      <stop offset="1" stop-color="#f8f8fa" stop-opacity="0.18"/>
    </linearGradient>
    <linearGradient id="linear-gradient-3" x1="0.5" x2="0.5" y2="1" gradientUnits="objectBoundingBox">
      <stop offset="0" stop-color="#eff0f2"/>
      <stop offset="1" stop-color="#fefefe"/>
    </linearGradient>
  </defs>
  <g id="Group_46453" data-name="Group 46453" transform="translate(-453.551 -70.912)">
    <g id="Group_43584" data-name="Group 43584" transform="translate(455.051 101.501)">
      <line id="Line_306" data-name="Line 306" x2="459.24" transform="translate(0 180.897)" fill="none" stroke="#c6c6c6" stroke-linecap="round" stroke-width="3" opacity="0.467"/>
      <path id="Subtraction_52" data-name="Subtraction 52" d="M406.543,179.177H0a181.439,181.439,0,0,1,15.572-62.023A188.6,188.6,0,0,1,34.353,84.57,196.308,196.308,0,0,1,59.227,56.182,203.2,203.2,0,0,1,89.377,32.76a208.135,208.135,0,0,1,34.6-17.686A211.962,211.962,0,0,1,162.217,3.9a218.163,218.163,0,0,1,82.109,0,211.964,211.964,0,0,1,38.238,11.176,208.1,208.1,0,0,1,34.6,17.686,203.215,203.215,0,0,1,30.148,23.422A196.34,196.34,0,0,1,372.191,84.57a188.645,188.645,0,0,1,18.782,32.583,181.475,181.475,0,0,1,15.57,62.023Z" transform="translate(28.278)" opacity="0.25" fill="url(#linear-gradient)"/>
      <g id="Group_43565" data-name="Group 43565" transform="translate(48.24 66.158)">
        <g id="Group_43246" data-name="Group 43246" transform="translate(154.656 22.875)" opacity="0.587">
          <path id="Path_49195" data-name="Path 49195" d="M259.93,36.057l3.854-1.087,5.881.477-6.058,1.707Z" transform="translate(-250.494 -31.564)" fill="#d8dadd"/>
          <path id="Path_49196" data-name="Path 49196" d="M259.93,36.057l3.854-1.087,5.881.477-6.058,1.707Z" transform="translate(-250.494 -31.564)" fill="#d8dadd" opacity="0.2"/>
          <path id="Path_49197" data-name="Path 49197" d="M404.4,107.784l5.508-1.555,3,.814,22.392-6.313s3.4-.6,3.523.54l-28.918,8.106Z" transform="translate(-404.4 -100.571)" fill="#d8dadd"/>
          <path id="Path_49198" data-name="Path 49198" d="M461.245,106.258,437.2,113.037l-2.2-.8,29-8.176S464.731,105.275,461.245,106.258Z" transform="translate(-429.491 -103.432)" fill="#d8dadd"/>
          <path id="Path_49199" data-name="Path 49199" d="M461.245,106.258,437.2,113.037l-2.2-.8,29-8.176S464.731,105.275,461.245,106.258Z" transform="translate(-429.491 -103.432)" fill="#d8dadd" opacity="0.2"/>
          <path id="Path_49200" data-name="Path 49200" d="M270.6,38.136l3.854-1.085L286.31,29.2l-8.445,2.382Z" transform="translate(-259.243 -26.833)" fill="#d8dadd"/>
        </g>
        <g id="Group_43245" data-name="Group 43245" transform="translate(0 12.596)">
          <path id="Union_11" data-name="Union 11" d="M290.127,100.6V70.153h-50.3V100.6h-3.309V60.226H223.944V100.6h-3.309V60.226H207.4V100.6h-3.309V60.226H190.854V100.6h-3.309V70.153H172.322V100.6h-2.647V70.153h-14.56V100.6h-2.647V70.153H135.923V67.505h51.622V56.917h11.912V50.961h-4.632V44.342h36.4v6.619h-4.632v5.956h13.236v9.927h8.66V36.677l6.673,9.96V59.923l.8-1.187h12.987v8.108h0V50.961H302.7V61.88h18.821l3.792,5.346v2.046h7.666l2.813,3.86v5.108h2.731l1.682,2.78v7.5H293.436V100.6ZM200.781,56.917h24.487V50.961H200.781ZM272.92,100.6V70.153h3.309V100.6Zm-18.531,0V70.153H257.7V100.6Zm-142.954,0V59.729H103.99L97.537,26.473h6.7l.58-4.632h13.236V19.855h5.295V15.884h-8.6V11.251h7.384c.03-1.416,1.1-1.985,2.544-1.985s2.613.569,2.646,1.985h6.618v4.633h-8.6v3.971h5.295V21.84h5.956V5.295h.661a2.647,2.647,0,1,1,2.648-2.648,2.647,2.647,0,0,1-2.648,2.648h1.324V21.84h3.309l.786,4.632H148.5l-6.37,33.257h-6.2V100.6Zm-37.062,0V79.419H59.151V100.6H55.841V77.433H48.768V100.6H0V88.065a4.318,4.318,0,0,1,.651-1.834,4.6,4.6,0,0,1,4.107-2.014c1.017-.019,1.814-.029,2.441-.033V68.912L16.794,57V75.944h5.729V70.92a5.461,5.461,0,0,1,5.792-5.069H30.94l4.922-6.72,5.129,6.8h2.626a5.647,5.647,0,0,1,2.3.645V60.593a5,5,0,0,1,5-5H61.43a5,5,0,0,1,5,5V70.816h8.625V41.674H87.4c-.126,4.866,5.5,6.428,5.5,6.428V77.432H85.622l0,0H95.55v1.985H92.9V100.6H90.918V79.419H76.358V100.6ZM307.391,61.826V29.4l6.673,10.479v21.95Z" transform="translate(0 0)" fill="url(#linear-gradient-2)"/>
          <path id="Path_49192" data-name="Path 49192" d="M-5265.834,8702.584h10.535l4.743,23.439h-10.7Z" transform="translate(5366.79 -8671.093)" opacity="0.79" fill="url(#linear-gradient-3)"/>
          <path id="Path_49193" data-name="Path 49193" d="M-5246.416,8702.584h20.295l-4.467,23.439H-5242Z" transform="translate(5360.222 -8671.093)" opacity="0.79" fill="url(#linear-gradient-3)"/>
          <path id="Path_49194" data-name="Path 49194" d="M-5215.423,8702.584h9.706l-5.019,23.5h-9.432Z" transform="translate(5351.345 -8671.093)" opacity="0.79" fill="url(#linear-gradient-3)"/>
        </g>
        <path id="Path_47943" data-name="Path 47943" d="M-6575.563,7762.6s-.294-2.958,3.467-2.563c.009.051,1.133-3.46,5.776-2.848a4.614,4.614,0,0,1,3.542,3.615,2.444,2.444,0,0,1,2.314,0c.178.208,1.231-1.7,3.247-.519a4.769,4.769,0,0,1,5.495-3.1c.154.052,3.276.527,3.743,3.615-.094-.083,3.18-.952,3.5,1.8C-6544.593,7762.586-6575.563,7762.6-6575.563,7762.6Z" transform="translate(6803.944 -7735.553)" opacity="0.04"/>
        <path id="Path_47941" data-name="Path 47941" d="M-6575.564,7762.354s-.281-2.826,3.313-2.45c.008.049,1.082-3.306,5.518-2.722a4.409,4.409,0,0,1,3.383,3.454c-.019.134.05,1.476,0,1.718C-6563.459,7762.34-6575.564,7762.354-6575.564,7762.354Z" transform="translate(6630.008 -7736.596)" opacity="0.07"/>
        <path id="Path_47942" data-name="Path 47942" d="M-6645.374,7702.316s2.4-5.582,8.733-2.417a6.309,6.309,0,0,0,4.493.506c-.053.01,3.448-1.3,4.517,1.912C-6627.6,7702.294-6645.374,7702.316-6645.374,7702.316Z" transform="translate(6820.825 -7698.927)" opacity="0.04"/>
        <path id="Path_49279" data-name="Path 49279" d="M-6645.374,7700.986s1.454-3.39,5.3-1.469a3.842,3.842,0,0,0,2.729.308c-.032.005,2.094-.79,2.743,1.161C-6634.577,7700.972-6645.374,7700.986-6645.374,7700.986Z" transform="translate(6733.282 -7688.39)" opacity="0.04"/>
      </g>
    </g>
    <path id="Path_50087" data-name="Path 50087" d="M548.366,279.945v8.011a1.672,1.672,0,0,1-1.55,1.678A1.635,1.635,0,0,1,545.1,288v-8.061a3.72,3.72,0,1,1,3.262,0Z" transform="translate(151.188 -182.122)" fill="#c4c4c4"/>
    <path id="Path_50136" data-name="Path 50136" d="M542.651,256.183h-1.245v-2.418a4.971,4.971,0,1,0-9.942-.067v2.485h-1.242a2.078,2.078,0,0,0-2.072,2.072V268.2a2.078,2.078,0,0,0,2.072,2.072h12.429a2.077,2.077,0,0,0,2.071-2.072v-9.941A2.077,2.077,0,0,0,542.651,256.183Zm-5.489,6.463v3.561a.743.743,0,0,1-.689.746.727.727,0,0,1-.761-.726v-3.583a1.654,1.654,0,1,1,1.45,0Zm2.8-6.463h-7.045V253.7a3.521,3.521,0,0,1,7.042,0Z" transform="translate(244.707 -177.577)" fill="#e4e7ea"/>
    <path id="Path_52637" data-name="Path 52637" d="M3.344-9.88V-20.748L27.892-54.416H41.876V-21.2h6.46V-9.88h-6.46V0H28.728V-9.88ZM29.792-39.368,16.568-21.2H29.792ZM56.544-27.436q0,12.616,5.092,19.988T77.9-.076q11.1,0,16.226-7.372t5.13-19.988q0-12.54-5.13-19.874T77.9-54.644q-11.172,0-16.264,7.334T56.544-27.436Zm29.792,0q0,7.22-1.71,11.134T77.9-12.388q-5.092,0-6.84-3.914T69.312-27.436q0-7.144,1.748-11.02t6.84-3.876q5.016,0,6.726,3.838T86.336-27.436Zm41.192-28.652a22.084,22.084,0,0,1,9.652,1.938,14.2,14.2,0,0,1,6.118,5.32,14.233,14.233,0,0,1,2.09,7.638,12.629,12.629,0,0,1-2.7,8.436,11.7,11.7,0,0,1-6.726,4.028v.38q10.412,3.344,10.412,13a15.93,15.93,0,0,1-2.128,8.246,14.391,14.391,0,0,1-6.194,5.624A21.8,21.8,0,0,1,128.288.532q-9.272,0-14.706-4.56t-5.89-13.908h12.692a8.753,8.753,0,0,0,1.976,5.624,6.745,6.745,0,0,0,5.32,2.052,5.931,5.931,0,0,0,4.446-1.672,5.936,5.936,0,0,0,1.634-4.332q0-6.612-9.576-6.612h-2.432V-33.44h2.356q8.588.152,8.588-6.156a5.706,5.706,0,0,0-1.482-4.218,5.392,5.392,0,0,0-3.99-1.482,5.41,5.41,0,0,0-4.332,1.862,8.37,8.37,0,0,0-1.824,4.978H108.376q.38-8.512,5.32-13.072T127.528-56.088Z" transform="translate(620 127)" fill="#d9dcdf"/>
  </g>
</svg>
