<svg xmlns="http://www.w3.org/2000/svg" height="50" width="50" viewBox="0 0 16.492 14.667">
  <path id="Path_52675" data-name="Path 52675" d="M128.515,158.667h15.461a.544.544,0,0,0,.515-.568V144.568a.544.544,0,0,0-.515-.568H128.515a.544.544,0,0,0-.515.568V158.1A.544.544,0,0,0,128.515,158.667Zm.515-4.51h4.123v3.374h-4.123Zm9.277-4.51v3.374h-4.123v-3.374Zm-4.123-1.136v-3.374h4.123v3.374Zm5.154,1.136h4.123v3.374h-4.123Zm-1.031,4.51v3.374h-4.123v-3.374Zm-5.154-1.136h-4.123v-3.374h4.123Zm6.185,4.51v-3.374h4.123v3.374Zm4.123-9.021h-4.123v-3.374h4.123Zm-10.308-3.374v3.374h-4.123v-3.374Z" transform="translate(-128 -144)" fill="#0c00bc"/>
</svg>
