<svg xmlns="http://www.w3.org/2000/svg" height="50px" width="50px" viewBox="0 0 11.92 12.062">
  <g id="down-arrow" transform="translate(-10 -8)">
    <path id="Path_47913" data-name="Path 47913" d="M22.66,17.4a.5.5,0,0,0,.711,0l2.513-2.513a.5.5,0,1,0-.711-.711l-1.655,1.655V8.5a.5.5,0,1,0-1.005,0v7.331l-1.655-1.655a.5.5,0,1,0-.711.711Z" transform="translate(-7.056 0)" fill="#001662"/>
    <path id="Path_47914" data-name="Path 47914" d="M11.508,44.021h8.9a1.509,1.509,0,0,0,1.508-1.508V40.5a.5.5,0,0,0-1.005,0v2.01a.5.5,0,0,1-.5.5h-8.9a.5.5,0,0,1-.5-.5V40.5A.5.5,0,0,0,10,40.5v2.01A1.509,1.509,0,0,0,11.508,44.021Z" transform="translate(0 -23.958)" fill="#001662"/>
  </g>
</svg>
