<svg width="19" height="35" viewBox="0 0 19 35" fill="none" xmlns="http://www.w3.org/2000/svg">
<path d="M0.0826356 9.59109C0.0255221 9.69402 -0.00292782 9.81039 0.000238149 9.92805C0.00340412 10.0457 0.0380754 10.1604 0.100641 10.2601L6.58465 20.5971V23.8971C6.58458 24.015 6.61618 24.1308 6.67617 24.2323C6.73616 24.3338 6.82232 24.4173 6.92564 24.4741L11.3156 26.8901C11.4159 26.9454 11.5289 26.9737 11.6434 26.972C11.7579 26.9703 11.8699 26.9387 11.9685 26.8805C12.0671 26.8222 12.1487 26.7392 12.2054 26.6397C12.2621 26.5402 12.2918 26.4276 12.2917 26.3131V20.6021L18.7746 10.2621C18.8372 10.1625 18.8719 10.0479 18.8752 9.93028C18.8784 9.81268 18.8501 9.69635 18.7931 9.59341C18.7362 9.49048 18.6526 9.40471 18.5512 9.34503C18.4498 9.28535 18.3343 9.25395 18.2166 9.2541H14.7266C14.6016 8.64358 14.2696 8.09495 13.7868 7.70097C13.3039 7.30698 12.6998 7.0918 12.0766 7.0918C11.4534 7.0918 10.8494 7.30698 10.3665 7.70097C9.88368 8.09495 9.55168 8.64358 9.42665 9.2541H0.657648C0.540012 9.25411 0.424525 9.28565 0.323221 9.34545C0.221917 9.40525 0.138495 9.49111 0.0816438 9.59409L0.0826356 9.59109ZM12.0826 8.4081C12.3545 8.40846 12.6202 8.4885 12.847 8.63834C13.0738 8.78817 13.2517 9.00121 13.3586 9.2511H10.7996C10.9067 9.0009 11.0849 8.78764 11.3121 8.63779C11.5393 8.48793 11.8055 8.40807 12.0776 8.4081H12.0826ZM17.0316 10.5681L11.0796 20.0571C11.0141 20.162 10.9794 20.2833 10.9796 20.4071V25.1941L7.90664 23.5031V20.4031C7.90688 20.2794 7.87223 20.158 7.80665 20.0531L1.85464 10.5641L17.0316 10.5681Z" fill="#666666"/>
<path opacity="0.578" d="M9.07042 4.22005C9.07062 3.58295 8.88187 2.9601 8.52806 2.43028C8.17425 1.90046 7.67128 1.48746 7.08273 1.24352C6.49419 0.999575 5.84651 0.935647 5.22163 1.05982C4.59676 1.18399 4.02274 1.49068 3.57217 1.9411C3.12161 2.39153 2.81475 2.96545 2.69038 3.59029C2.56602 4.21513 2.62974 4.86282 2.8735 5.45144C3.11727 6.04006 3.5301 6.54317 4.05981 6.89714C4.58953 7.25111 5.21232 7.44005 5.84941 7.44005C6.7035 7.44005 7.52262 7.10083 8.12665 6.49699C8.73067 5.89315 9.07015 5.07414 9.07042 4.22005ZM4.19742 4.22005C4.19742 3.89311 4.29436 3.57352 4.476 3.30169C4.65763 3.02985 4.91579 2.81799 5.21783 2.69287C5.51988 2.56776 5.85225 2.53503 6.1729 2.59881C6.49355 2.66259 6.78808 2.82002 7.01926 3.0512C7.25043 3.28238 7.40787 3.57691 7.47165 3.89756C7.53543 4.21821 7.50271 4.55058 7.37759 4.85262C7.25248 5.15467 7.0406 5.41283 6.76877 5.59447C6.49693 5.7761 6.17735 5.87305 5.85042 5.87305C5.41202 5.87305 4.99156 5.69889 4.68156 5.3889C4.37157 5.0789 4.19742 4.65845 4.19742 4.22005Z" fill="#666666"/>
<path opacity="0.25" d="M12.8115 32.7871C12.8117 32.3832 12.6921 31.9883 12.4679 31.6524C12.2436 31.3165 11.9248 31.0546 11.5517 30.8999C11.1786 30.7452 10.7679 30.7046 10.3718 30.7833C9.9756 30.8619 9.61166 31.0563 9.32598 31.3419C9.0403 31.6274 8.84572 31.9913 8.76685 32.3874C8.68798 32.7835 8.72835 33.1942 8.88288 33.5673C9.0374 33.9405 9.29913 34.2595 9.63495 34.4839C9.97078 34.7084 10.3656 34.8281 10.7695 34.8281C11.3109 34.8281 11.8302 34.6131 12.2131 34.2304C12.596 33.8477 12.8113 33.3285 12.8115 32.7871ZM9.72153 32.7871C9.72232 32.58 9.78446 32.3778 9.90009 32.206C10.0157 32.0342 10.1797 31.9005 10.3713 31.8218C10.5628 31.7431 10.7734 31.7229 10.9764 31.7638C11.1795 31.8047 11.3658 31.9048 11.512 32.0515C11.6581 32.1982 11.7576 32.385 11.7977 32.5882C11.8378 32.7913 11.8168 33.0018 11.7374 33.1931C11.6579 33.3844 11.5236 33.5478 11.3514 33.6628C11.1791 33.7778 10.9766 33.8391 10.7695 33.8391C10.4916 33.8391 10.225 33.7287 10.0285 33.5322C9.83194 33.3356 9.72153 33.0691 9.72153 32.7911V32.7871Z" fill="#666666"/>
<path opacity="0.25" d="M8.80272 28.6821C8.80272 28.2165 8.66467 27.7614 8.40601 27.3743C8.14735 26.9872 7.77971 26.6855 7.34957 26.5073C6.91943 26.3291 6.44612 26.2825 5.98949 26.3734C5.53286 26.4642 5.11341 26.6884 4.7842 27.0176C4.45499 27.3468 4.23079 27.7663 4.13996 28.2229C4.04913 28.6795 4.09575 29.1528 4.27392 29.583C4.45208 30.0131 4.75381 30.3807 5.14092 30.6394C5.52803 30.8981 5.98316 31.0361 6.44874 31.0361C7.07306 31.0361 7.6718 30.7881 8.11326 30.3467C8.55472 29.9052 8.80272 29.3064 8.80272 28.6821ZM5.23974 28.6821C5.23974 28.4432 5.31058 28.2097 5.44332 28.011C5.57606 27.8123 5.76472 27.6575 5.98545 27.5661C6.20618 27.4746 6.44907 27.4507 6.6834 27.4973C6.91773 27.5439 7.13297 27.659 7.30192 27.8279C7.47086 27.9969 7.5859 28.2121 7.63251 28.4465C7.67912 28.6808 7.6552 28.9237 7.56377 29.1444C7.47234 29.3651 7.31751 29.5538 7.11886 29.6865C6.9202 29.8193 6.68665 29.8901 6.44773 29.8901C6.12735 29.8901 5.82009 29.7629 5.59354 29.5363C5.367 29.3098 5.23974 29.0025 5.23974 28.6821Z" fill="#666666"/>
</svg>
