<svg width="88" height="101" viewBox="0 0 88 101" fill="none" xmlns="http://www.w3.org/2000/svg">
<path fill-rule="evenodd" clip-rule="evenodd" d="M60.7545 13.6239C60.729 6.86823 65.8021 1.03032 72.4813 0.112574C79.237 -0.779683 86.0437 3.73259 87.4968 10.0804C87.8792 11.7629 87.8282 15.7908 87.3948 17.4479C87.1909 18.2636 84.667 24.4075 81.8118 31.1376L76.6112 43.3488L71.2322 43.4253C68.275 43.4508 65.8531 43.4508 65.8531 43.4253C65.8531 43.3743 67.3827 39.7288 69.2692 35.3185L72.6853 27.2882L71.3596 27.0077C65.3942 25.7841 60.78 19.9717 60.7545 13.6239ZM77.8859 13.6494C77.8859 11.8139 77.427 10.9726 76.0249 10.2843C75.5405 10.0294 74.7502 9.82543 74.2658 9.82543C72.1499 9.82543 70.6968 11.406 70.6968 13.6494C70.6968 16.6066 73.4501 18.3401 76.0249 17.0145C77.427 16.3262 77.8859 15.4849 77.8859 13.6494ZM18.7127 42.2404V81.0627L15.4973 77.9C14.7671 77.1912 13.9013 76.3469 13.0353 75.5024L13.0323 75.4994L13.032 75.4992C11.7736 74.272 10.5153 73.0448 9.67264 72.2334L7.11611 69.7296L3.55806 73.2877L0 76.8457L4.92857 81.8007C7.66959 84.5417 13.0462 89.8392 16.8942 93.5818L23.9049 100.434L35.8178 88.6532L47.7307 76.8984L44.2253 73.3667C42.3013 71.4428 40.6409 69.8878 40.5355 69.9141C40.43 69.9668 37.7945 72.4706 34.6844 75.4752L28.9916 80.9836V42.214V0.444396H23.8521H18.7127V42.2404ZM69.5911 55.8195C69.5911 56.0044 69.3006 56.7438 68.9573 57.4832C67.7162 60.1503 64.4945 62.6326 60.7182 63.8737L58.5 64.5867V69.6305V74.7007L60.1637 74.463C61.0615 74.3574 62.2234 74.1197 62.7252 73.9349C63.8343 73.5916 66.924 72.0599 68.3236 71.1885C68.8781 70.8452 69.3799 70.5547 69.4591 70.5547C69.5383 70.5547 69.5911 77.2622 69.5911 85.4748V100.395L74.6877 100.342L79.758 100.263L79.8372 77.8695L79.89 55.5026H74.7406C70.8059 55.5026 69.5911 55.5819 69.5911 55.8195Z" fill="black"/>
</svg>
