<svg width="12" height="12" viewBox="0 0 12 12" fill="none" xmlns="http://www.w3.org/2000/svg">
<path d="M7.60606 4.84201H10.989C11.1073 4.84201 11.2207 4.79501 11.3044 4.71135C11.3881 4.6277 11.4351 4.51424 11.4351 4.39593C11.4351 4.27761 11.3881 4.16416 11.3044 4.0805C11.2207 3.99684 11.1073 3.94984 10.989 3.94984L8.05215 3.94984V1.01439C8.05215 0.896082 8.00515 0.782623 7.92149 0.698965C7.83783 0.615306 7.72437 0.568308 7.60606 0.568308C7.48775 0.568308 7.37429 0.615306 7.29063 0.698965C7.20697 0.782623 7.15998 0.896082 7.15998 1.01439V4.39869C7.16071 4.51651 7.20803 4.62927 7.29161 4.71233C7.37519 4.79539 7.48823 4.84201 7.60606 4.84201V4.84201Z" fill="#001662"/>
<path d="M7.29049 4.71125C7.33186 4.75271 7.381 4.78558 7.4351 4.80801C7.4892 4.83045 7.54718 4.842 7.60575 4.842C7.66431 4.842 7.7223 4.83045 7.7764 4.80801C7.83049 4.78558 7.87964 4.75271 7.92101 4.71125L11.8676 0.763216C11.9094 0.72189 11.9426 0.672739 11.9653 0.618542C11.988 0.564346 11.9998 0.50617 12 0.447406C12.0002 0.388642 11.9887 0.33043 11.9664 0.276099C11.944 0.221768 11.911 0.172406 11.8695 0.13083C11.828 0.0892548 11.7787 0.0563092 11.7243 0.0338572C11.67 0.0114052 11.6118 -0.000107038 11.5531 3.67879e-06C11.4943 0.000114396 11.4361 0.0118379 11.3819 0.0344944C11.3277 0.0571508 11.2785 0.0902879 11.2371 0.13202L7.29049 4.08006C7.24901 4.12149 7.21611 4.17066 7.19366 4.22482C7.17122 4.27897 7.15966 4.33703 7.15966 4.39566C7.15966 4.45428 7.17122 4.5123 7.19366 4.56645C7.21611 4.62061 7.24901 4.66982 7.29049 4.71125V4.71125Z" fill="#001662"/>
<path d="M1.00985 7.25911H3.94668L3.94668 10.1973C3.94668 10.3156 3.99367 10.4291 4.07733 10.5127C4.16099 10.5964 4.27445 10.6434 4.39276 10.6434C4.51107 10.6434 4.62455 10.5964 4.70821 10.5127C4.79187 10.4291 4.83887 10.3156 4.83887 10.1973V6.81022C4.83887 6.69191 4.79187 6.57845 4.70821 6.49479C4.62455 6.41113 4.51107 6.36414 4.39276 6.36414H1.00985C0.891538 6.36414 0.778078 6.41113 0.69442 6.49479C0.610762 6.57845 0.563763 6.69191 0.563763 6.81022C0.563763 6.92853 0.610762 7.04199 0.69442 7.12565C0.778078 7.20931 0.891538 7.25631 1.00985 7.25631V7.25911Z" fill="#001662"/>
<path d="M0.130256 11.0771C0.171626 11.1185 0.22077 11.1514 0.274866 11.1739C0.328962 11.1963 0.386949 11.2079 0.445514 11.2079C0.504079 11.2079 0.562067 11.1963 0.616162 11.1739C0.670258 11.1514 0.719402 11.1185 0.760773 11.0771L4.70739 7.12908C4.78642 7.04455 4.82952 6.93262 4.82757 6.81692C4.82563 6.70122 4.77881 6.59079 4.69698 6.50897C4.61516 6.42714 4.50475 6.38029 4.38905 6.37835C4.27335 6.37641 4.16142 6.41953 4.07689 6.49856L0.130957 10.4466C0.0473145 10.5301 0.000260289 10.6435 0.000129799 10.7617C-6.90787e-07 10.8799 0.0467983 10.9933 0.130256 11.0771V11.0771Z" fill="#001662"/>
<path d="M4.39394 4.84201L1.01103 4.84201C0.892716 4.84201 0.779257 4.79501 0.695598 4.71135C0.61194 4.6277 0.564941 4.51424 0.564941 4.39593C0.564941 4.27761 0.61194 4.16416 0.695598 4.0805C0.779257 3.99684 0.892716 3.94984 1.01103 3.94984L3.94785 3.94984L3.94785 1.01439C3.94785 0.896082 3.99485 0.782623 4.07851 0.698965C4.16217 0.615306 4.27563 0.568308 4.39394 0.568308C4.51225 0.568308 4.62571 0.615306 4.70937 0.698965C4.79303 0.782623 4.84002 0.896082 4.84002 1.01439L4.84002 4.39869C4.83929 4.51651 4.79197 4.62927 4.70839 4.71233C4.62481 4.79539 4.51177 4.84201 4.39394 4.84201V4.84201Z" fill="#001662"/>
<path d="M4.70951 4.71125C4.66814 4.75271 4.619 4.78558 4.5649 4.80801C4.5108 4.83045 4.45282 4.842 4.39425 4.842C4.33569 4.842 4.2777 4.83045 4.2236 4.80801C4.16951 4.78558 4.12036 4.75271 4.07899 4.71125L0.132358 0.763216C0.0905805 0.72189 0.0574001 0.672739 0.0346838 0.618542C0.0119676 0.564346 0.000177535 0.50617 1.9926e-06 0.447406C-0.00017355 0.388642 0.0112511 0.33043 0.0336432 0.276099C0.0560352 0.221768 0.0889592 0.172406 0.130489 0.13083C0.172019 0.0892548 0.221345 0.0563092 0.275651 0.0338572C0.329958 0.0114052 0.388173 -0.000107038 0.446937 3.67879e-06C0.505701 0.000114396 0.563852 0.0118379 0.618074 0.0344944C0.672295 0.0571508 0.721502 0.0902879 0.762875 0.13202L4.70951 4.08006C4.75099 4.12149 4.78389 4.17066 4.80634 4.22482C4.82878 4.27897 4.84034 4.33703 4.84034 4.39566C4.84034 4.45428 4.82878 4.5123 4.80634 4.56645C4.78389 4.62061 4.75099 4.66982 4.70951 4.71125V4.71125Z" fill="#001662"/>
<path d="M10.9535 7.19771H8.0167V10.1359C8.0167 10.2542 7.9697 10.3677 7.88605 10.4513C7.80239 10.535 7.68893 10.582 7.57062 10.582C7.45231 10.582 7.33883 10.535 7.25517 10.4513C7.17151 10.3677 7.12451 10.2542 7.12451 10.1359L7.12451 6.74882C7.12451 6.63051 7.17151 6.51705 7.25517 6.43339C7.33883 6.34973 7.45231 6.30273 7.57062 6.30273L10.9535 6.30273C11.0718 6.30273 11.1853 6.34973 11.269 6.43339C11.3526 6.51705 11.3996 6.63051 11.3996 6.74882C11.3996 6.86713 11.3526 6.98059 11.269 7.06425C11.1853 7.14791 11.0718 7.1949 10.9535 7.1949V7.19771Z" fill="#001662"/>
<path d="M11.8331 11.0157C11.7918 11.0571 11.7426 11.09 11.6885 11.1125C11.6344 11.1349 11.5764 11.1465 11.5179 11.1465C11.4593 11.1465 11.4013 11.1349 11.3472 11.1125C11.2931 11.09 11.244 11.0571 11.2026 11.0157L7.25599 7.06767C7.17696 6.98315 7.13386 6.87122 7.13581 6.75552C7.13775 6.63982 7.18457 6.52939 7.2664 6.44756C7.34822 6.36574 7.45863 6.31889 7.57433 6.31695C7.69003 6.31501 7.80196 6.35813 7.88649 6.43716L11.8324 10.3852C11.9161 10.4687 11.9631 10.5821 11.9632 10.7003C11.9634 10.8185 11.9166 10.9319 11.8331 11.0157V11.0157Z" fill="#001662"/>
</svg>
