<svg width="13" height="13" viewBox="0 0 13 13" fill="none" xmlns="http://www.w3.org/2000/svg">
<path d="M4.48299 11.4752H1.04457V8.14524C1.04457 8.01116 0.989547 7.88257 0.8916 7.78776C0.793653 7.69294 0.660816 7.63968 0.522298 7.63968C0.383781 7.63968 0.250919 7.69294 0.152972 7.78776C0.0550255 7.88257 0 8.01116 0 8.14524L0 11.9839C0 12.118 0.0550255 12.2466 0.152972 12.3414C0.250919 12.4362 0.383781 12.4895 0.522298 12.4895H4.48299C4.62151 12.4895 4.75434 12.4362 4.85229 12.3414C4.95024 12.2466 5.00526 12.118 5.00526 11.9839C5.00526 11.8499 4.95024 11.7213 4.85229 11.6265C4.75434 11.5316 4.62151 11.4784 4.48299 11.4784V11.4752Z" fill="#001662"/>
<path d="M0.164402 12.3253C0.212838 12.3723 0.270375 12.4096 0.33371 12.435C0.397045 12.4604 0.464937 12.4735 0.533504 12.4735C0.602072 12.4735 0.669963 12.4604 0.733298 12.435C0.796633 12.4096 0.85417 12.3723 0.902607 12.3253L5.52328 7.85089C5.61581 7.7551 5.66626 7.62824 5.66399 7.49711C5.66171 7.36599 5.60689 7.24084 5.51109 7.1481C5.41529 7.05537 5.28603 7.00227 5.15057 7.00007C5.0151 6.99787 4.88406 7.04674 4.7851 7.13631L0.165222 11.6107C0.0672946 11.7054 0.0122038 11.8339 0.012051 11.9678C0.0118983 12.1018 0.0666902 12.2304 0.164402 12.3253V12.3253Z" fill="#001662"/>
<path d="M11.4776 0L7.5169 0C7.37839 0 7.24555 0.0532648 7.1476 0.148077C7.04965 0.24289 6.99463 0.371477 6.99463 0.505562C6.99463 0.639647 7.04965 0.768234 7.1476 0.863047C7.24555 0.957859 7.37839 1.01112 7.5169 1.01112H10.9553V4.33795C10.9553 4.47204 11.0103 4.60063 11.1083 4.69544C11.2062 4.79025 11.3391 4.84352 11.4776 4.84352C11.6161 4.84352 11.7489 4.79025 11.8469 4.69544C11.9448 4.60063 11.9999 4.47204 11.9999 4.33795V0.502433C11.999 0.368895 11.9436 0.241101 11.8458 0.14697C11.7479 0.0528389 11.6155 -2.60001e-06 11.4776 0V0Z" fill="#001662"/>
<path d="M11.8478 0.148372C11.7994 0.101392 11.7419 0.0641407 11.6785 0.03871C11.6152 0.0132794 11.5473 0.000198364 11.4787 0.000198364C11.4102 0.000198364 11.3423 0.0132794 11.279 0.03871C11.2156 0.0641407 11.1581 0.101392 11.1096 0.148372L6.48895 4.6228C6.44004 4.66964 6.40119 4.72534 6.37459 4.78677C6.348 4.84819 6.33419 4.91412 6.33399 4.98072C6.33378 5.04732 6.34716 5.11329 6.37337 5.17487C6.39959 5.23644 6.43814 5.29239 6.48676 5.3395C6.53538 5.38662 6.59313 5.42396 6.65672 5.44941C6.7203 5.47485 6.78845 5.4879 6.85725 5.48777C6.92606 5.48765 6.99414 5.47436 7.05762 5.44869C7.1211 5.42301 7.17871 5.38545 7.22715 5.33816L11.8478 0.863726C11.8964 0.816773 11.9349 0.761041 11.9612 0.699667C11.9875 0.638293 12.001 0.572487 12.001 0.506049C12.001 0.439611 11.9875 0.373854 11.9612 0.31248C11.9349 0.251106 11.8964 0.195326 11.8478 0.148372V0.148372Z" fill="#001662"/>
<path d="M11.4776 0L7.5169 0C7.37839 0 7.24555 0.0532648 7.1476 0.148077C7.04965 0.24289 6.99463 0.371477 6.99463 0.505562C6.99463 0.639647 7.04965 0.768234 7.1476 0.863047C7.24555 0.957859 7.37839 1.01112 7.5169 1.01112H10.9553V4.33795C10.9553 4.47204 11.0103 4.60063 11.1083 4.69544C11.2062 4.79025 11.3391 4.84352 11.4776 4.84352C11.6161 4.84352 11.7489 4.79025 11.8469 4.69544C11.9448 4.60063 11.9999 4.47204 11.9999 4.33795V0.502433C11.999 0.368895 11.9436 0.241101 11.8458 0.14697C11.7479 0.0528389 11.6155 -2.60001e-06 11.4776 0V0Z" fill="#001662"/>
<path d="M6.48614 5.33959C6.53457 5.38657 6.59211 5.42382 6.65545 5.44925C6.71878 5.47468 6.78667 5.48776 6.85524 5.48776C6.92381 5.48776 6.9917 5.47468 7.05503 5.44925C7.11837 5.42382 7.17591 5.38657 7.22434 5.33959L11.845 0.865158C11.8939 0.818321 11.9328 0.762617 11.9594 0.701195C11.986 0.639773 11.9998 0.57384 12 0.50724C12.0002 0.440641 11.9868 0.374668 11.9606 0.313093C11.9344 0.251518 11.8958 0.195575 11.8472 0.148456C11.7986 0.101337 11.7409 0.0639988 11.6773 0.0385533C11.6137 0.0131078 11.5455 6.05816e-05 11.4767 0.000186061C11.4079 0.00031154 11.3398 0.0135982 11.2764 0.0392754C11.2129 0.0649527 11.1553 0.102508 11.1068 0.149804L6.48614 4.62423C6.43758 4.67119 6.39906 4.72692 6.37278 4.78829C6.34649 4.84967 6.33297 4.91547 6.33297 4.98191C6.33297 5.04835 6.34649 5.11411 6.37278 5.17548C6.39906 5.23685 6.43758 5.29264 6.48614 5.33959V5.33959Z" fill="#001662"/>
</svg>
