<svg width="100" height="100" viewBox="0 0 100 100" fill="none" xmlns="http://www.w3.org/2000/svg">
<path d="M71.2929 1.24882C68.3147 8.18044 52.8701 44.5517 52.8701 44.6571C52.8701 44.7361 55.3476 44.8152 58.3522 44.8152H63.8342L65.3892 41.1254L66.9442 37.4355L76.5378 37.4883L86.1313 37.5673L87.6336 41.1254L89.1359 44.6834L94.618 44.7625C100.074 44.8152 100.1 44.8152 99.9682 44.2617C99.8892 43.9718 95.6458 33.8775 90.5328 21.8592L81.2291 0.0100906H76.5378H71.8201L71.2929 1.24882ZM79.1997 21.3321C80.5175 24.4421 81.5718 27.0249 81.519 27.0777C81.4663 27.1304 79.147 27.1304 76.406 27.104L71.3984 27.0249L73.9022 21.1476C75.2727 17.9058 76.4851 15.3493 76.5905 15.481C76.7223 15.5865 77.8819 18.2221 79.1997 21.3321Z" fill="black"/>
<path d="M18.7127 41.806V80.6284L15.4973 77.4657C13.7051 75.7262 11.0959 73.1696 9.67264 71.7991L7.11611 69.2953L3.55806 72.8534L0 76.4114L4.92857 81.3663C7.66959 84.1074 13.0462 89.4049 16.8942 93.1475L23.9049 100L35.8178 88.2189L47.7307 76.4641L44.2253 72.9324C42.3013 71.0084 40.6409 69.4534 40.5355 69.4798C40.43 69.5325 37.7945 72.0363 34.6844 75.0409L28.9916 80.5493V41.7797V0.0100861H23.8521H18.7127V41.806Z" fill="black"/>
<path d="M57.0077 55.1158C56.9023 55.1949 56.8232 57.5142 56.8232 60.2552V65.2101L68.7625 65.2629L80.7281 65.3419L76.6429 69.8224C74.4027 72.2735 69.0261 78.1773 64.6773 82.9477L56.8232 91.5661V95.783V100H76.4584H96.0936V94.8606V89.7212L84.2598 89.6685L72.426 89.5894L84.2598 76.6223L96.0936 63.6288V59.28V54.9313H76.6429C65.9424 54.9313 57.0868 55.0104 57.0077 55.1158Z" fill="black"/>
</svg>
