<?xml version="1.0" encoding="utf-8"?>
<!-- Generator: Adobe Illustrator 23.0.0, SVG Export Plug-In . SVG Version: 6.00 Build 0)  -->
<svg version="1.1" id="Layer_1" xmlns="http://www.w3.org/2000/svg" xmlns:xlink="http://www.w3.org/1999/xlink" x="0px" y="0px"
	 viewBox="0 0 22.1 22.1" style="enable-background:new 0 0 22.1 22.1;" xml:space="preserve" height="50" width="50">
<style type="text/css">
	.st0{fill:#891B55;}
</style>
<path class="st0" d="M20.1,0H2C0.9,0,0,0.9,0,2v18.1c0,1.1,0.9,2,2,2h18.1c1.1,0,2-0.9,2-2V2C22.1,0.9,21.2,0,20.1,0z M16.9,8.8
	L10,15.4c-0.3,0.3-0.8,0.3-1.1,0l-3.1-3c-0.3-0.3-0.3-0.8,0-1.1s0.8-0.3,1.1,0l2.5,2.4l6.3-6c0.3-0.3,0.8-0.3,1.2,0
	C17.2,8,17.2,8.5,16.9,8.8z"/>
</svg>
