<svg id="refresh_1_" data-name="refresh (1)" xmlns="http://www.w3.org/2000/svg" width="50px" height="50px" viewBox="0 0 296.149 308.898">
  <g id="Group_45631" data-name="Group 45631" transform="translate(0)">
    <path id="Path_51151" data-name="Path 51151" d="M303.575,136.136a11.507,11.507,0,1,0-22.723,3.642v.2A126.668,126.668,0,1,1,249.39,75.651L198.41,92.638a11.507,11.507,0,0,0-7.283,14.566h0a11.507,11.507,0,0,0,14.566,7.283h0l69.024-23.014a11.507,11.507,0,0,0,7.866-10.924V11.507a11.507,11.507,0,0,0-23.014,0V53.529a148.061,148.061,0,1,0,43.952,82.606Z" transform="translate(-9.457)" fill="#007bcb"/>
  </g>
</svg>
