<svg width="12" height="12" viewBox="0 0 12 12" fill="none" xmlns="http://www.w3.org/2000/svg">
<path d="M11.5536 6.10352e-05L8.17069 6.10352e-05C8.05238 6.10352e-05 7.93892 0.0470595 7.85527 0.130718C7.77161 0.214376 7.72461 0.327836 7.72461 0.446146C7.72461 0.564457 7.77161 0.677916 7.85527 0.761575C7.93892 0.845233 8.05238 0.892232 8.17069 0.892232L11.1075 0.892232V3.82768C11.1075 3.94599 11.1545 4.05945 11.2382 4.14311C11.3218 4.22677 11.4353 4.27376 11.5536 4.27376C11.6719 4.27376 11.7854 4.22677 11.869 4.14311C11.9527 4.05945 11.9997 3.94599 11.9997 3.82768V0.443385C11.999 0.325558 11.9516 0.212798 11.8681 0.129741C11.7845 0.0466837 11.6714 5.8741e-05 11.5536 6.10352e-05V6.10352e-05Z" fill="#001662"/>
<path d="M11.8692 0.130818C11.8278 0.0893651 11.7787 0.0564961 11.7246 0.0340573C11.6705 0.0116184 11.6125 7.62939e-05 11.5539 7.62939e-05C11.4954 7.62939e-05 11.4374 0.0116184 11.3833 0.0340573C11.3292 0.0564961 11.28 0.0893651 11.2387 0.130818L7.29203 4.07886C7.25025 4.12018 7.21707 4.16933 7.19435 4.22353C7.17164 4.27773 7.15985 4.3359 7.15967 4.39467C7.15949 4.45343 7.17092 4.51164 7.19331 4.56597C7.2157 4.6203 7.24863 4.66967 7.29016 4.71124C7.33169 4.75282 7.38101 4.78576 7.43532 4.80821C7.48963 4.83067 7.54784 4.84218 7.6066 4.84207C7.66537 4.84196 7.72352 4.83023 7.77774 4.80758C7.83196 4.78492 7.88117 4.75178 7.92254 4.71005L11.8692 0.762015C11.9107 0.720585 11.9436 0.671409 11.966 0.617256C11.9885 0.563102 12 0.505038 12 0.446416C12 0.387794 11.9885 0.329773 11.966 0.27562C11.9436 0.221466 11.9107 0.172248 11.8692 0.130818V0.130818Z" fill="#001662"/>
<path d="M3.82902 10.3129H0.892192L0.892192 7.37467C0.892192 7.25636 0.845193 7.1429 0.761535 7.05925C0.677877 6.97559 0.564417 6.92859 0.446106 6.92859C0.327796 6.92859 0.214315 6.97559 0.130657 7.05925C0.0469985 7.1429 0 7.25636 0 7.37467L0 10.7618C0 10.8801 0.0469985 10.9935 0.130657 11.0772C0.214315 11.1609 0.327796 11.2079 0.446106 11.2079H3.82902C3.94733 11.2079 4.06079 11.1609 4.14445 11.0772C4.22811 10.9935 4.2751 10.8801 4.2751 10.7618C4.2751 10.6435 4.22811 10.53 4.14445 10.4463C4.06079 10.3627 3.94733 10.3157 3.82902 10.3157V10.3129Z" fill="#001662"/>
<path d="M4.70861 6.49492C4.66724 6.45347 4.6181 6.42056 4.564 6.39812C4.50991 6.37568 4.45192 6.36414 4.39335 6.36414C4.33479 6.36414 4.2768 6.37568 4.2227 6.39812C4.16861 6.42056 4.11946 6.45347 4.07809 6.49492L0.13148 10.4429C0.0524478 10.5274 0.00935088 10.6394 0.0112934 10.7551C0.0132359 10.8708 0.0600616 10.9812 0.141887 11.063C0.223711 11.1449 0.334116 11.1917 0.449818 11.1936C0.56552 11.1956 0.67745 11.1525 0.761976 11.0734L4.70791 7.12544C4.79155 7.04189 4.83861 6.92853 4.83874 6.81031C4.83887 6.69208 4.79207 6.57866 4.70861 6.49492V6.49492Z" fill="#001662"/>
<path d="M0.446393 6.10352e-05H3.82931C3.94762 6.10352e-05 4.06108 0.0470595 4.14473 0.130718C4.22839 0.214376 4.27539 0.327836 4.27539 0.446146C4.27539 0.564457 4.22839 0.677916 4.14473 0.761575C4.06108 0.845233 3.94762 0.892232 3.82931 0.892232H0.892478V3.82768C0.892478 3.94599 0.84548 4.05945 0.761821 4.14311C0.678163 4.22677 0.564704 4.27376 0.446393 4.27376C0.328082 4.27376 0.214623 4.22677 0.130964 4.14311C0.047306 4.05945 0.000307547 3.94599 0.000307547 3.82768V0.443385C0.00104284 0.325558 0.0483626 0.212798 0.131941 0.129741C0.21552 0.0466837 0.328563 5.8741e-05 0.446393 6.10352e-05V6.10352e-05Z" fill="#001662"/>
<path d="M0.130821 0.130818C0.172191 0.0893651 0.221335 0.0564961 0.275431 0.0340573C0.329527 0.0116184 0.387515 7.62939e-05 0.44608 7.62939e-05C0.504645 7.62939e-05 0.562632 0.0116184 0.616728 0.0340573C0.670824 0.0564961 0.719968 0.0893651 0.761338 0.130818L4.70797 4.07886C4.74975 4.12018 4.78293 4.16933 4.80565 4.22353C4.82836 4.27773 4.84015 4.3359 4.84033 4.39467C4.84051 4.45343 4.82908 4.51164 4.80669 4.56597C4.7843 4.6203 4.75137 4.66967 4.70984 4.71124C4.66831 4.75282 4.61899 4.78576 4.56468 4.80821C4.51037 4.83067 4.45216 4.84218 4.3934 4.84207C4.33463 4.84196 4.27648 4.83023 4.22226 4.80758C4.16804 4.78492 4.11883 4.75178 4.07746 4.71005L0.130821 0.762015C0.0893466 0.720585 0.0564448 0.671409 0.0339964 0.617256C0.0115481 0.563102 -5.7769e-06 0.505038 -5.7769e-06 0.446416C-5.7769e-06 0.387794 0.0115481 0.329773 0.0339964 0.27562C0.0564448 0.221466 0.0893466 0.172248 0.130821 0.130818V0.130818Z" fill="#001662"/>
<path d="M8.13436 10.2515H11.0712V7.3133C11.0712 7.19499 11.1182 7.08153 11.2018 6.99787C11.2855 6.91422 11.399 6.86722 11.5173 6.86722C11.6356 6.86722 11.7491 6.91422 11.8327 6.99787C11.9164 7.08153 11.9634 7.19499 11.9634 7.3133V10.7004C11.9634 10.8187 11.9164 10.9322 11.8327 11.0158C11.7491 11.0995 11.6356 11.1465 11.5173 11.1465H8.13436C8.01605 11.1465 7.90259 11.0995 7.81893 11.0158C7.73527 10.9322 7.68827 10.8187 7.68827 10.7004C7.68827 10.5821 7.73527 10.4686 7.81893 10.385C7.90259 10.3013 8.01605 10.2543 8.13436 10.2543V10.2515Z" fill="#001662"/>
<path d="M7.25477 6.43355C7.29614 6.3921 7.34528 6.35918 7.39938 6.33675C7.45347 6.31431 7.51146 6.30276 7.57003 6.30276C7.62859 6.30276 7.68658 6.31431 7.74067 6.33675C7.79477 6.35918 7.84391 6.3921 7.88528 6.43355L11.8319 10.3815C11.9109 10.4661 11.954 10.578 11.9521 10.6937C11.9501 10.8094 11.9033 10.9198 11.8215 11.0017C11.7397 11.0835 11.6293 11.1303 11.5136 11.1323C11.3979 11.1342 11.2859 11.0911 11.2014 11.0121L7.25547 7.06407C7.17183 6.98051 7.12477 6.86716 7.12464 6.74894C7.12451 6.63071 7.17131 6.51729 7.25477 6.43355V6.43355Z" fill="#001662"/>
</svg>
