<svg width="100" height="55" viewBox="0 0 100 55" fill="none" xmlns="http://www.w3.org/2000/svg">
<path d="M3.11213 0.504324C2.76033 0.621592 2.05671 1.11021 1.52901 1.63792C-0.112753 3.27968 -0.464559 5.54687 0.629948 7.40362C0.903574 7.83361 11.4773 18.5637 24.1423 31.2091C42.1039 49.1512 47.3615 54.311 48.0455 54.6042C49.1987 55.1319 50.8013 55.1319 51.9545 54.6042C52.6385 54.311 57.8961 49.1512 75.8577 31.2091C88.5227 18.5637 99.0964 7.83361 99.3701 7.40362C100.465 5.54687 100.113 3.27968 98.471 1.63792C97.9042 1.07112 97.2397 0.621592 96.7901 0.504324C95.7934 0.230697 4.08937 0.230697 3.11213 0.504324Z" fill="black"/>
</svg>
