<svg width="100" height="101" viewBox="0 0 100 101" fill="none" xmlns="http://www.w3.org/2000/svg">
<path d="M71.2929 57.4336C68.3147 64.3652 52.8701 100.736 52.8701 100.842C52.8701 100.921 55.3476 101 58.3522 101H63.8342L65.3892 97.3102L66.9442 93.6203L76.5378 93.673L86.1313 93.7521L87.6336 97.3102L89.1359 100.868L94.618 100.947C100.074 101 100.1 101 99.9682 100.447C99.8892 100.157 95.6458 90.0623 90.5328 78.044L81.2291 56.1949H76.5378H71.8201L71.2929 57.4336ZM79.1997 77.5168C80.5175 80.6268 81.5718 83.2097 81.519 83.2624C81.4663 83.3152 79.147 83.3152 76.406 83.2888L71.3984 83.2097L73.9022 77.3324C75.2727 74.0906 76.4851 71.534 76.5905 71.6658C76.7223 71.7712 77.8819 74.4068 79.1997 77.5168Z" fill="black"/>
<path d="M18.7127 42.796V81.6183L15.4973 78.4556C13.7051 76.7161 11.0959 74.1596 9.67264 72.789L7.11611 70.2852L3.55806 73.8433L0 77.4013L4.92857 82.3563C7.66959 85.0973 13.0462 90.3948 16.8942 94.1374L23.9049 100.99L35.8178 89.2088L47.7307 77.454L44.2253 73.9223C42.3013 71.9984 40.6409 70.4434 40.5355 70.4697C40.43 70.5224 37.7945 73.0262 34.6844 76.0308L28.9916 81.5392V42.7696V1H23.8521H18.7127V42.796Z" fill="black"/>
<path d="M57.0077 1.11581C56.9023 1.19488 56.8232 3.5142 56.8232 6.25522V11.2101L68.7625 11.2629L80.7281 11.3419L76.6429 15.8224C74.4027 18.2735 69.0261 24.1773 64.6773 28.9477L56.8232 37.5661V41.783V46H76.4584H96.0936V40.8606V35.7212L84.2598 35.6685L72.426 35.5894L84.2598 22.6223L96.0936 9.62878V5.28005V0.931316H76.6429C65.9424 0.931316 57.0868 1.01038 57.0077 1.11581Z" fill="black"/>
</svg>
