<svg width="79" height="93" viewBox="0 0 79 93" fill="none" xmlns="http://www.w3.org/2000/svg">
<path d="M35.316 0.366669C34.3704 0.810531 33.5985 1.60177 33.2125 2.54739C32.9423 3.18423 32.9037 6.23338 32.9037 29.6616V56.0618L25.8212 48.9793C18.3528 41.5301 17.851 41.1248 16.1913 41.1055C14.8598 41.1055 13.6633 41.8775 11.3088 44.2898C10.1316 45.5056 9.03164 46.7986 8.87725 47.1652C8.49129 48.0915 8.52988 49.5389 8.95445 50.4652C9.4755 51.5653 36.9757 78.9882 37.9599 79.4128C38.8862 79.7795 40.0441 79.7795 40.9705 79.4128C41.8775 79.0268 69.4163 51.6039 69.9759 50.4845C70.5356 49.4231 70.497 47.8793 69.8987 46.8372C69.2233 45.7178 65.1706 41.7617 64.3022 41.395C63.3566 41.009 62.1215 41.0283 61.1759 41.4722C60.6741 41.7231 57.9916 44.2512 53.36 48.9021C49.481 52.7811 46.2582 55.9653 46.181 55.9653C46.1038 55.9653 46.0073 43.9424 45.988 29.2756L45.9301 2.56668L45.3705 1.77545C45.0231 1.27369 44.4635 0.791234 43.8459 0.48246C42.9003 0.019299 42.7266 0 39.4845 0C36.5897 0 35.9722 0.0578947 35.316 0.366669Z" fill="black"/>
<path fill-rule="evenodd" clip-rule="evenodd" d="M25.0986 71C31.52 77.3836 37.5098 83.2187 37.96 83.4128C38.8862 83.7795 40.0439 83.7795 40.9702 83.4128C41.3857 83.2361 47.3833 77.3922 53.8184 71H77C78.1045 71 79 71.8954 79 73V91C79 92.1046 78.1045 93 77 93H2C0.895508 93 0 92.1046 0 91V73C0 71.8954 0.895508 71 2 71H25.0986ZM64 86.5C64 87.8807 62.8809 89 61.5 89C60.1191 89 59 87.8807 59 86.5C59 85.1193 60.1191 84 61.5 84C62.8809 84 64 85.1193 64 86.5ZM70.5 89C71.8809 89 73 87.8807 73 86.5C73 85.1193 71.8809 84 70.5 84C69.1191 84 68 85.1193 68 86.5C68 87.8807 69.1191 89 70.5 89Z" fill="black"/>
</svg>
