<svg width="17" height="18" viewBox="0 0 17 18" fill="none" xmlns="http://www.w3.org/2000/svg">
<path d="M1.24537 8.29345C1.82869 8.89692 2.79077 8.91325 3.39424 8.32992C3.9977 7.7466 4.01403 6.78452 3.43071 6.18105C2.84739 5.57759 1.88531 5.56126 1.28184 6.14458C0.678372 6.7279 0.662043 7.68998 1.24537 8.29345Z" fill="#0E2071"/>
<path d="M3.3938 5.01928C3.97713 5.62275 4.93921 5.63908 5.54268 5.05575C6.14614 4.47243 6.16247 3.51035 5.57915 2.90688C4.99583 2.30342 4.03374 2.28709 3.43028 2.87041C2.82681 3.45373 2.81048 4.41581 3.3938 5.01928Z" fill="#0E2071"/>
<path d="M7.3689 3.85058C7.95222 4.45405 8.91431 4.47038 9.51777 3.88705C10.1212 3.30373 10.1376 2.34165 9.55425 1.73818C8.97092 1.13471 8.00884 1.11838 7.40537 1.70171C6.80191 2.28503 6.78558 3.24711 7.3689 3.85058Z" fill="#0E2071"/>
<path d="M1.0564 12.1052C1.63972 12.7086 2.60181 12.725 3.20527 12.1416C3.80874 11.5583 3.82507 10.5962 3.24175 9.99276C2.65842 9.38929 1.69634 9.37296 1.09287 9.95629C0.489408 10.5396 0.473078 11.5017 1.0564 12.1052Z" fill="#0E2071"/>
<path d="M3.3938 15.3793C3.97713 15.9828 4.93921 15.9991 5.54268 15.4158C6.14614 14.8325 6.16247 13.8704 5.57915 13.2669C4.99583 12.6635 4.03374 12.6471 3.43028 13.2305C2.82681 13.8138 2.81048 14.7759 3.3938 15.3793Z" fill="#0E2071"/>
<path d="M7.27955 16.548C7.86287 17.1515 8.82495 17.1678 9.42842 16.5845C10.0319 16.0012 10.0482 15.0391 9.46489 14.4356C8.88157 13.8322 7.91949 13.8158 7.31602 14.3992C6.71255 14.9825 6.69622 15.9446 7.27955 16.548Z" fill="#0E2071"/>
<path d="M11.0212 15.3793C11.6046 15.9828 12.5667 15.9991 13.1701 15.4158C13.7736 14.8325 13.7899 13.8704 13.2066 13.2669C12.6233 12.6635 11.6612 12.6471 11.0577 13.2305C10.4543 13.8138 10.4379 14.7759 11.0212 15.3793Z" fill="#0E2071"/>
<path d="M13.1697 12.2499C13.753 12.8534 14.7151 12.8697 15.3186 12.2864C15.922 11.7031 15.9384 10.741 15.355 10.1375C14.7717 9.53407 13.8096 9.51774 13.2062 10.1011C12.6027 10.6844 12.5864 11.6465 13.1697 12.2499Z" fill="#0E2071"/>
<path d="M13.1697 8.29345C13.753 8.89692 14.7151 8.91325 15.3186 8.32992C15.922 7.7466 15.9384 6.78452 15.355 6.18105C14.7717 5.57759 13.8096 5.56126 13.2062 6.14458C12.6027 6.7279 12.5864 7.68998 13.1697 8.29345Z" fill="#0E2071"/>
</svg>
