<svg width="16" height="23" viewBox="0 0 16 23" fill="none" xmlns="http://www.w3.org/2000/svg">
<path fill-rule="evenodd" clip-rule="evenodd" d="M7.81104 0C8.36332 0 8.81104 0.447715 8.81104 1V21.144C8.81104 21.6963 8.36332 22.144 7.81104 22.144C7.25875 22.144 6.81104 21.6963 6.81104 21.144V1C6.81104 0.447715 7.25875 0 7.81104 0Z" fill="#0C28A8"/>
<path fill-rule="evenodd" clip-rule="evenodd" d="M8.57337 0.354034C8.93014 0.775619 8.87759 1.4066 8.45601 1.76337L1.64601 7.52637C1.22442 7.88314 0.593442 7.83059 0.236673 7.40901C-0.120096 6.98742 -0.0675518 6.35644 0.354034 5.99967L7.16403 0.236673C7.58562 -0.120096 8.2166 -0.0675518 8.57337 0.354034Z" fill="#0C28A8"/>
<path fill-rule="evenodd" clip-rule="evenodd" d="M7.23667 0.354034C7.59344 -0.0675518 8.22442 -0.120096 8.64601 0.236673L15.456 5.99967C15.8776 6.35644 15.9301 6.98742 15.5734 7.40901C15.2166 7.83059 14.5856 7.88314 14.164 7.52637L7.35403 1.76337C6.93245 1.4066 6.8799 0.775619 7.23667 0.354034Z" fill="#0C28A8"/>
</svg>
