<svg width="13" height="13" viewBox="0 0 13 13" fill="none" xmlns="http://www.w3.org/2000/svg">
<path d="M1.18107 8.0143H4.61949V11.3443C4.61949 11.4783 4.67452 11.6069 4.77246 11.7017C4.87041 11.7966 5.00325 11.8498 5.14176 11.8498C5.28028 11.8498 5.41314 11.7966 5.51109 11.7017C5.60904 11.6069 5.66406 11.4783 5.66406 11.3443L5.66406 7.50556C5.66406 7.37148 5.60904 7.24289 5.51109 7.14808C5.41314 7.05326 5.28028 7 5.14176 7L1.18107 7C1.04256 7 0.909719 7.05326 0.811772 7.14808C0.713825 7.24289 0.6588 7.37148 0.6588 7.50556C0.6588 7.63965 0.713825 7.76823 0.811772 7.86305C0.909719 7.95786 1.04256 8.01112 1.18107 8.01112V8.0143Z" fill="#001662"/>
<path d="M5.49966 7.16423C5.45122 7.11725 5.39369 7.07995 5.33035 7.05452C5.26702 7.02909 5.19913 7.01601 5.13056 7.01601C5.06199 7.01601 4.9941 7.02909 4.93076 7.05452C4.86743 7.07995 4.80989 7.11725 4.76146 7.16423L0.140787 11.6386C0.048257 11.7344 -0.00220061 11.8613 7.36733e-05 11.9924C0.00234796 12.1235 0.0571712 12.2487 0.152971 12.3414C0.248771 12.4341 0.378032 12.4872 0.513495 12.4894C0.648958 12.4916 0.780005 12.4428 0.878967 12.3532L5.49884 7.87881C5.59677 7.78412 5.65186 7.65565 5.65201 7.52166C5.65216 7.38768 5.59737 7.25913 5.49966 7.16423V7.16423Z" fill="#001662"/>
<path d="M6.8559 5.48776L10.8166 5.48776C10.9551 5.48776 11.0879 5.4345 11.1859 5.33969C11.2838 5.24487 11.3389 5.11629 11.3389 4.9822C11.3389 4.84812 11.2838 4.71953 11.1859 4.62472C11.0879 4.5299 10.9551 4.47664 10.8166 4.47664H7.37818V1.14981C7.37818 1.01572 7.32315 0.887136 7.2252 0.792323C7.12726 0.69751 6.99442 0.644246 6.8559 0.644246C6.71739 0.644246 6.58455 0.69751 6.4866 0.792323C6.38865 0.887136 6.33363 1.01572 6.33363 1.14981L6.33363 4.98533C6.33449 5.11887 6.38989 5.24666 6.48774 5.34079C6.5856 5.43492 6.71795 5.48777 6.8559 5.48776V5.48776Z" fill="#001662"/>
<path d="M6.48565 5.33939C6.53409 5.38637 6.59162 5.42362 6.65496 5.44905C6.71829 5.47448 6.78618 5.48756 6.85475 5.48756C6.92332 5.48756 6.99121 5.47448 7.05455 5.44905C7.11788 5.42362 7.17542 5.38637 7.22385 5.33939L11.8445 0.86496C11.8935 0.818123 11.9323 0.762419 11.9589 0.700996C11.9855 0.639574 11.9993 0.573641 11.9995 0.507042C11.9997 0.440443 11.9863 0.37447 11.9601 0.312895C11.9339 0.25132 11.8954 0.195377 11.8467 0.148258C11.7981 0.101139 11.7404 0.0638005 11.6768 0.038355C11.6132 0.0129094 11.545 -0.000137783 11.4762 -1.23036e-05C11.4074 0.000113175 11.3394 0.0133998 11.2759 0.039077C11.2124 0.0647543 11.1548 0.10231 11.1063 0.149606L6.48565 4.62404C6.43709 4.67099 6.39857 4.72672 6.37229 4.7881C6.34601 4.84947 6.33248 4.91528 6.33248 4.98171C6.33248 5.04815 6.34601 5.11391 6.37229 5.17528C6.39857 5.23666 6.43709 5.29244 6.48565 5.33939V5.33939Z" fill="#001662"/>
<path d="M6.8559 5.48776L10.8166 5.48776C10.9551 5.48776 11.0879 5.4345 11.1859 5.33969C11.2838 5.24487 11.3389 5.11629 11.3389 4.9822C11.3389 4.84812 11.2838 4.71953 11.1859 4.62472C11.0879 4.5299 10.9551 4.47664 10.8166 4.47664H7.37818V1.14981C7.37818 1.01572 7.32315 0.887136 7.2252 0.792323C7.12726 0.69751 6.99442 0.644246 6.8559 0.644246C6.71739 0.644246 6.58455 0.69751 6.4866 0.792323C6.38865 0.887136 6.33363 1.01572 6.33363 1.14981L6.33363 4.98533C6.33449 5.11887 6.38989 5.24666 6.48774 5.34079C6.5856 5.43492 6.71795 5.48777 6.8559 5.48776V5.48776Z" fill="#001662"/>
<path d="M11.8474 0.148174C11.7989 0.101194 11.7414 0.0639423 11.678 0.0385117C11.6147 0.013081 11.5468 0 11.4783 0C11.4097 0 11.3418 0.013081 11.2785 0.0385117C11.2151 0.0639423 11.1576 0.101194 11.1092 0.148174L6.48846 4.6226C6.43955 4.66944 6.4007 4.72515 6.3741 4.78657C6.34751 4.84799 6.3337 4.91392 6.3335 4.98052C6.33329 5.04712 6.34667 5.11309 6.37289 5.17467C6.3991 5.23624 6.43765 5.29219 6.48627 5.33931C6.53489 5.38643 6.59265 5.42376 6.65623 5.44921C6.71981 5.47465 6.78797 5.4877 6.85677 5.48758C6.92557 5.48745 6.99365 5.47416 7.05713 5.44849C7.12061 5.42281 7.17823 5.38525 7.22666 5.33796L11.8474 0.863528C11.8959 0.816574 11.9344 0.760842 11.9607 0.699468C11.987 0.638094 12.0005 0.572289 12.0005 0.505851C12.0005 0.439413 11.987 0.373656 11.9607 0.312282C11.9344 0.250908 11.8959 0.195127 11.8474 0.148174V0.148174Z" fill="#001662"/>
</svg>
