<svg width="88" height="100" viewBox="0 0 88 100" fill="none" xmlns="http://www.w3.org/2000/svg">
<path fill-rule="evenodd" clip-rule="evenodd" d="M18.7127 41.796V80.6183L15.4973 77.4556C14.7671 76.7468 13.9013 75.9025 13.0353 75.058L13.0323 75.055L13.032 75.0548C11.7736 73.8276 10.5153 72.6004 9.67264 71.789L7.11611 69.2852L3.55806 72.8433L0 76.4013L4.92857 81.3563C7.66959 84.0973 13.0462 89.3948 16.8942 93.1374L23.9049 99.9899L35.8178 88.2088L47.7307 76.454L44.2253 72.9223C42.3013 70.9984 40.6409 69.4434 40.5355 69.4697C40.43 69.5224 37.7945 72.0262 34.6844 75.0308L28.9916 80.5392V41.7696V0H23.8521H18.7127V41.796ZM69.5911 1.36503C69.5911 1.54988 69.3006 2.28928 68.9573 3.02868C67.7162 5.69581 64.4945 8.17808 60.7182 9.41922L58.5 10.1322V15.176V20.2462L60.1637 20.0085C61.0615 19.9029 62.2234 19.6652 62.7252 19.4804C63.8343 19.1371 66.924 17.6054 68.3236 16.734C68.8781 16.3907 69.3799 16.1002 69.4591 16.1002C69.5383 16.1002 69.5911 22.8077 69.5911 31.0203V45.9404L74.6877 45.8876L79.758 45.8083L79.8372 23.415L79.89 1.04814H74.7406C70.8059 1.04814 69.5911 1.12736 69.5911 1.36503ZM60.7545 67.7558C60.729 61.0002 65.8021 55.1622 72.4813 54.2445C79.237 53.3522 86.0437 57.8645 87.4968 64.2123C87.8792 65.8948 87.8282 69.9227 87.3948 71.5798C87.1909 72.3956 84.667 78.5394 81.8118 85.2695L76.6112 97.4807L71.2322 97.5572C68.275 97.5827 65.8531 97.5827 65.8531 97.5572C65.8531 97.5062 67.3827 93.8607 69.2692 89.4504L72.6853 81.4201L71.3596 81.1397C65.3942 79.916 60.78 74.1036 60.7545 67.7558ZM77.8859 67.7813C77.8859 65.9458 77.427 65.1045 76.0249 64.4162C75.5405 64.1613 74.7502 63.9574 74.2658 63.9574C72.1499 63.9574 70.6968 65.5379 70.6968 67.7813C70.6968 70.7385 73.4501 72.472 76.0249 71.1464C77.427 70.4581 77.8859 69.6168 77.8859 67.7813Z" fill="black"/>
</svg>
