<svg xmlns="http://www.w3.org/2000/svg" xmlns:xlink="http://www.w3.org/1999/xlink" width="638.8" height="189.72" viewBox="0 0 638.8 189.72">
  <defs>
    <linearGradient id="linear-gradient" x1="0.498" y1="1.102" x2="0.498" y2="0.009" gradientUnits="objectBoundingBox">
      <stop offset="0" stop-color="#1f2433" stop-opacity="0"/>
      <stop offset="1" stop-color="#fff" stop-opacity="0.2"/>
    </linearGradient>
    <linearGradient id="linear-gradient-2" x1="0.5" y1="1.096" x2="0.5" y2="0" xlink:href="#linear-gradient"/>
  </defs>
  <g id="no_data" transform="translate(0.3 -12.08)">
    <g id="Subtraction_43_2_" transform="translate(227.216 56)">
      <path id="Path_51082" data-name="Path 51082" d="M34.7,121.8H10.6a10.968,10.968,0,0,1-11-11v-65a10.968,10.968,0,0,1,11-11H34.7a8.978,8.978,0,0,0,2.7,6.6,8.791,8.791,0,0,0,6.4,2.8,9.178,9.178,0,0,0,9-9.4H169.6a10.968,10.968,0,0,1,11,11v65a10.968,10.968,0,0,1-11,11H52.7c0-.4.1-.8.1-1.2a9.057,9.057,0,0,0-18.1-.7v.7Q34.7,121.35,34.7,121.8Z" fill="none"/>
      <path id="Path_51083" data-name="Path 51083" d="M32.7,119.8a11.008,11.008,0,0,1,22,0H169.6a8.88,8.88,0,0,0,9-9v-65a8.88,8.88,0,0,0-9-9H54.6a11.156,11.156,0,0,1-10.9,9.4,10.6,10.6,0,0,1-7.8-3.4,11.077,11.077,0,0,1-3-6H10.6a8.88,8.88,0,0,0-9,9v65a8.88,8.88,0,0,0,9,9H32.7m2,2H10.6a10.968,10.968,0,0,1-7.8-3.2,10.8,10.8,0,0,1-3.2-7.8v-65A10.968,10.968,0,0,1,2.8,38a10.8,10.8,0,0,1,7.8-3.2H34.7a8.978,8.978,0,0,0,2.7,6.6,8.791,8.791,0,0,0,6.4,2.8,9.182,9.182,0,0,0,9-9.4H169.6a10.968,10.968,0,0,1,7.8,3.2,10.8,10.8,0,0,1,3.2,7.8v65a10.968,10.968,0,0,1-3.2,7.8,10.8,10.8,0,0,1-7.8,3.2H52.7c0-.4.1-.8.1-1.2a9.057,9.057,0,1,0-18.1,0q0,.75,0,1.2Z" fill="#777f93"/>
    </g>
    <g id="Group_45567" data-name="Group 45567">
      <path id="Path_51084" data-name="Path 51084" d="M270.9,100.2h0a7.719,7.719,0,0,0,1.5-.2l-.1-4.1-.6-.3-.1-2.1-1.2-.5H269v2.4l-.8.1v4.1A5.1,5.1,0,0,0,270.9,100.2Z" fill-rule="evenodd" fill="url(#linear-gradient)"/>
      <path id="Path_51085" data-name="Path 51085" d="M638.4,173.9h-5.6l-.3-6-10.6-.2-.1-96.5.4-.1v-.8l-4.2-.2-.2-3.7-9-.1-1.3,1.4v1.6l-8.4,9,.7,87.3h-.4v.7h-1l-.2-1.8-.8-.1-.1-51-1.9-.1v-3.1H593l-.1-3-11-.5-.1-.8-4.6-.2-.9,1,.1,1.3-.5.2v.4l-2.2.1-1.9,2.2-4.4.1-2.7,4,.4,18.8-3.9-.1v-.8h-2.4l-.4-3.2h-3.8V118.4h-3v-1.1h-2.3l-.1-12.2h-1v1.1h-.7v-1.1l-1.8-3.4V100h-.3v1.7h-.8L544.5,81H544l-1.2-1.9V78l-.4-.5-.4.5v1l-1.2,2.1h-.5v3.4H539v-.4h-.7v.3h-1.1l-.1-3.4-.5-.1-1.3-2v-1l-.4-.5-.3.4v.9l-1.2,2.2-.5.1-.1,3.4-.4.1v12l-7.6,1.3v1.8h-.7v8h-3.2l-.1,42.3h-5.5l-.2-1.8-1.2-2.1h-.6l-.1-2.6-4.1-.1-.2-5.7-.1-1v9.5h-1l-.1-7.4-3.3-5.6.1-17.6-.4-1.6H503v-.6h-6.8l-2.5-50.1-.8-2.8-.8-.1v-.9l.5-.1-.3-1.1-1.4-.1v-.9h-.2V51.9l.3-.2v-.5l-.4-.2v-.5l-.2-.1v-16l-.2-.1.1-7.6h-.5l-.1,7.6h-.1v3.4l-.1.1-.2,13.6h-.2v-.3h-.4v.6h.7v1.6l-.3.1v2.8l.3.1v2.3l-9.4.2V52.2l.5-.1s.1-.9.1-1-.7-.1-.7-.1l-.5-20-.2-.1-.2-9.1h-.1l-.1,9.1-.3.1-.3,19.9h-.4v.7c0,.1.4,0,.4,0v6.8H478l-.1,1.6h-2.4l-.6.2L473,95.1l-2.7.1v-.5l-.5-.5h-4.1v.9l-9.2.2-.1,58.7h-3.2l-.1-9.6-1-.7-3.6.1h-4.1l-.2,7.9-1.9-.8-1.6-.2-.2-5.9v-1.3l-1.7-.7-.1-1.2-1.1-.4-9.7.1v1.6l-1.8.1-.1,1.9-4.3.1-.1-.7-.9-.3h-1.2v-5.3l-1.9-1h-1.4l-.1-.3-4.4.2-1.5.4-.1.9-.6.1v8.7h-.2v1.5h-.6v1.7h-.6v16.4a3.4,3.4,0,0,1-.1,1v.3c0,.3-.1.5-.1.8,0,.1,0,.2-.1.2-.1.3-.1.5-.2.8,0,.1,0,.1-.1.2a6.9,6.9,0,0,1-.3.8.1.1,0,0,1-.1.1,2.01,2.01,0,0,1-.4.8c0,.1-.1.1-.1.2-.1.2-.3.5-.4.7-.1.1-.2.3-.3.4s-.2.3-.3.4a10.606,10.606,0,0,1-1.5,1.5l-.3.3c-.2.1-.3.3-.5.4s-.4.3-.6.4c-.1.1-.2.1-.3.2-.2.1-.5.2-.7.3a.349.349,0,0,0-.2.1c-.2.1-.5.2-.7.3-.1,0-.2.1-.3.1-.2.1-.4.1-.6.2-.1,0-.3.1-.4.1-.2,0-.3.1-.5.1s-.4.1-.6.1H279.9c0-.4.1-.8.1-1.2a9.235,9.235,0,0,0-8.1-9.3h-2a9.4,9.4,0,0,0-8.1,9.3v.1a4.868,4.868,0,0,0,.1,1.2H236.7c-.2,0-.4-.1-.6-.1a.749.749,0,0,1-.5-.1c-.1,0-.3-.1-.4-.1-.2-.1-.4-.1-.6-.2-.1,0-.2-.1-.3-.1-.2-.1-.5-.2-.7-.3a.349.349,0,0,1-.2-.1c-.2-.1-.5-.2-.7-.3-.1-.1-.2-.1-.3-.2a2.092,2.092,0,0,1-.6-.4,1.756,1.756,0,0,1-.5-.4,1.381,1.381,0,0,0-.4-.3,10.606,10.606,0,0,1-1.5-1.5c-.1-.1-.2-.3-.3-.4s-.2-.3-.3-.4a2.506,2.506,0,0,1-.4-.7c0-.1-.1-.1-.1-.2-.1-.3-.3-.5-.4-.8a.1.1,0,0,0-.1-.1,6.89,6.89,0,0,0-.3-.8c0-.1,0-.1-.1-.2-.1-.3-.1-.5-.2-.8,0-.1,0-.2-.1-.2a2.2,2.2,0,0,1-.1-.8v-.3c0-.4-.1-.7-.1-1.1h0V112.9l-5-1-13.8.5v4.2l-.4.2v19.6l-4.3.1v2.8l-1.8.1v4.3l-.4.2v16l-3.7-.1-.3-27.9-13.3-.2-.1,3.1-4.3.1-.1-1.1-18.1-.1-1.5.4.1,14.4h-1.8l-.1,2.3-1.8-.1V125.8l-1.5-.1v-.5h-1.2s.3-8.2-.7-10.3-4.1-4.5-7.1-6.2a14.329,14.329,0,0,1-5.8-5.9c-1.2-2.3-1-7.4-1-7.4a.764.764,0,0,0-.2-.5.494.494,0,0,0-.3-.1l.2,50.1h-3.1l-.3-8.1-1.5-.3v-2.1l-1.8-.3-.1-2.2-6-7.7v-.9l-.2-.2-.1-2.8.1-.1v-.5c0-.1-.2-.1-.2-.1l-.1-.8L125,115h-.1v3.2l-.1.8a.494.494,0,0,0-.3.1l-.1.2c0,.1.1.2.1.3v3l-.3.1v.7l-1.4,2V120l-1.2-.1v-3.2c.1-.1.2-.2.2-.3,0-.2-.3-.4-.4-.7a11.985,11.985,0,0,0-1.1-1.2,2.485,2.485,0,0,0-.1-.8,6.107,6.107,0,0,0-1.3-.3l-.2-1.2s.3-.2.3-.3-.7-.1-.7-.1a8.083,8.083,0,0,0-1.1-2.7c-1.1-1.8-2.1-1.7-2.1-1.7v-.8s-.6-.8-.7-.7a5.547,5.547,0,0,0-.6.8l-.1.8a6.089,6.089,0,0,0-2.2,2,5.506,5.506,0,0,0-1,2.5,1.95,1.95,0,0,0-.8.1c-.1.1.3.2.3.2v1.1l-2.7.3s-.8,0-.8.1.3.3.3.3v1.4l-.8.1v.6h-.4a.1.1,0,0,1-.1.1,2.186,2.186,0,0,0,.3.5l.1,3.6h-.3s-.2,0-.2.1.5.4.5.4l.1,3.8s-.4,0-.4.1.4.4.4.4l.1,20.1-.2,1.1-.6.9h-2.2l-.5-14.7-.7-.3-.2-2.1-.4-.2-.1-2.6-4.1-2.5-1.6-.1v-1.4l-2.7-.2-.2-5.6-4.8-.2v-2.5l-.8-.3-4.6.1-.1.5H77.6l-.1,1.5-2.9.1v-.3H71v1.3H68.6l-.1-.7H64.8v1.8l-1,.1L63,129.8l-11.1.5-.1-2.9H48.4l-.1-2-29.5.1-.1,2.2-.8.1L17.8,139l-8.2.2-.3,11.5H-.1l-.2,26.7,314.2,1v-.3H638.5v-4.2Z" fill-rule="evenodd" fill="url(#linear-gradient-2)"/>
    </g>
    <line id="Line_294_2_" y2="62.9" stroke-dasharray="5" transform="translate(271.3 103)" stroke="#777f93" stroke-linecap="round" stroke-width="2" fill="none"/>
    <circle id="Ellipse_2085_2_" cx="10" cy="10" r="10" transform="translate(286.8 106.8)" opacity="0.17"/>
    <rect id="Rectangle_764_2_" width="52" height="2" transform="translate(312.8 109.8)" fill="#777f93"/>
    <rect id="Rectangle_765_2_" width="68" height="2" transform="translate(312.8 118.8)" fill="#777f93"/>
    <circle id="Ellipse_2085-2_2_" cx="10" cy="10" r="10" transform="translate(286.8 138.8)" opacity="0.17"/>
    <rect id="Rectangle_764-2_2_" width="52" height="2" transform="translate(312.8 143.8)" fill="#777f93"/>
    <rect id="Rectangle_765-2_2_" width="68" height="2" transform="translate(312.8 152.8)" fill="#777f93"/>
    <g id="Ellipse_2086_2_" transform="translate(370.216 104)">
      <circle id="Ellipse_2522" data-name="Ellipse 2522" cx="31.5" cy="31.5" r="31.5" transform="translate(-0.4 34.8)" fill="#fff"/>
      <circle id="Ellipse_2523" data-name="Ellipse 2523" cx="30.5" cy="30.5" r="30.5" transform="translate(0.6 35.8)" fill="none" stroke="#777f93" stroke-width="2"/>
    </g>
    <g id="Group_43332_2_" transform="translate(407.072 120.616)">
      <ellipse id="Ellipse_2095_2_" cx="4" cy="5.5" rx="4" ry="5.5" transform="translate(-0.2 39.2)" fill="#00a3ff"/>
      <ellipse id="Ellipse_2096_2_" cx="1" cy="1.5" rx="1" ry="1.5" transform="translate(4.8 41.2)" fill="#fff"/>
      <path id="Path_49345_2_" d="M10.3,35.1s-4.2.6-6.9-2.2" fill="none" stroke="#469be4" stroke-linecap="round" stroke-width="2"/>
      <ellipse id="Ellipse_2100_2_" cx="1" cy="1.5" rx="1" ry="1.5" transform="translate(4.8 41.2)" fill="#fff"/>
    </g>
    <ellipse id="Ellipse_2099_2_" cx="4" cy="5.5" rx="4" ry="5.5" transform="translate(385.8 159.8)" fill="#00a3ff"/>
    <path id="Path_49346_2_" d="M383.8,155.7s4.2.6,6.9-2.2" fill="none" stroke="#00a3ff" stroke-linecap="round" stroke-width="2"/>
    <ellipse id="Ellipse_2097_2_" cx="3.2" cy="4.2" rx="3.2" ry="4.2" transform="translate(412.549 179.184) rotate(-89.026)" fill="#00a3ff" opacity="0.18"/>
    <ellipse id="Ellipse_2101_2_" cx="1" cy="1.5" rx="1" ry="1.5" transform="translate(389.8 161.8)" fill="#fff"/>
    <path id="Path_49347_2_" d="M410.8,187.7s-8.3-9.1-17.9,0" fill="none" stroke="#00a3ff" stroke-linecap="round" stroke-width="2"/>
    <ellipse id="Ellipse_2102_2_" cx="3.2" cy="4.2" rx="3.2" ry="4.2" transform="translate(380.549 179.186) rotate(-89.026)" fill="#00a3ff" opacity="0.18"/>
    <path id="Path_49348_2_" d="M229.3,83.2V72.5" fill="none" stroke="#707070" stroke-linecap="round" stroke-width="2"/>
    <path id="Path_49349_2_" d="M221.1,87.7l-8-8" fill="none" stroke="#707070" stroke-linecap="round" stroke-width="2"/>
    <path id="Path_49350_2_" d="M217.8,95.3H207.4" fill="none" stroke="#707070" stroke-linecap="round" stroke-width="2"/>
    <g id="airplane-flight_2_" transform="translate(292.169 77.259)">
      <path id="Path_47909_2_" d="M9.4,34.9l-1.1.5c-.1,0-.1.1-.2.1L6.3,37.2l-6-.7a.367.367,0,0,0-.3.1l-.3.3a.446.446,0,0,0,0,.5l.1.1,4.3,1.9L2.9,40.6H.7a.367.367,0,0,0-.3.1l-.2.2a.446.446,0,0,0,0,.5l.1.1,1.8.8L3,43.9a.365.365,0,0,0,.5.2.1.1,0,0,0,.1-.1l.2-.2a.31.31,0,0,0,.1-.2V41.5l1.2-1.2L7,44.5a.365.365,0,0,0,.5.2.1.1,0,0,0,.1-.1l.4-.4a.367.367,0,0,0,.1-.3l-.7-5.8,1.8-1.7c.1-.1.1-.1.1-.2l.5-1a.192.192,0,0,0-.1-.3A.187.187,0,0,0,9.4,34.9Z" fill="#fff"/>
    </g>
    <g id="airplane-flight-2_2_" transform="translate(292.169 109.259)">
      <path id="Path_47909-2_2_" d="M9.4,34.9l-1.1.5c-.1,0-.1.1-.2.1L6.3,37.2l-6-.7a.367.367,0,0,0-.3.1l-.3.3a.446.446,0,0,0,0,.5l.1.1,4.3,1.9L2.9,40.6H.7a.367.367,0,0,0-.3.1l-.2.2a.446.446,0,0,0,0,.5l.1.1,1.8.8L3,43.9a.365.365,0,0,0,.5.2.1.1,0,0,0,.1-.1l.2-.2a.31.31,0,0,0,.1-.2V41.5l1.2-1.2L7,44.5a.365.365,0,0,0,.5.2.1.1,0,0,0,.1-.1l.4-.4a.367.367,0,0,0,.1-.3l-.7-5.8,1.8-1.7c.1-.1.1-.1.1-.2l.5-1a.192.192,0,0,0-.1-.3A.187.187,0,0,0,9.4,34.9Z" fill="#fff"/>
    </g>
    <g id="Group_43246_2_" transform="translate(119.625 51.147)" opacity="0.587">
      <path id="Path_49195_2_" d="M-2.7,4.4,2,3l7.3.6L1.8,5.7Z" fill="#d8dadd"/>
      <path id="Path_49196_2_" d="M-2.7,4.4,2,3l7.3.6L1.8,5.7Z" fill="#d8dadd" opacity="0.2"/>
      <path id="Path_49197_2_" d="M-14.4,7.7l6.8-1.9,3.7,1L23.7-1s4.2-.7,4.3.7L-7.7,9.7Z" fill="#d8dadd"/>
      <path id="Path_49198_2_" d="M24.8,2.3-4.9,10.7l-2.7-1L28.2-.4S29.1,1.1,24.8,2.3Z" fill="#d8dadd"/>
      <path id="Path_49199_2_" d="M24.8,2.3-4.9,10.7l-2.7-1L28.2-.4S29.1,1.1,24.8,2.3Z" fill="#d8dadd" opacity="0.2"/>
      <path id="Path_49200_2_" d="M-.4,12.8l4.8-1.3L19,1.8,8.6,4.7Z" fill="#d8dadd"/>
    </g>
    <g id="Group_45568" data-name="Group 45568">
      <path id="Path_47943_2_" d="M519.7,22.5s-.6-5.6,6.6-4.8c0,.1,2.1-6.5,10.9-5.4a8.671,8.671,0,0,1,6.7,6.8c0,.3,2-1.5,4.4,0,.3.4,2.3-3.2,6.1-1,.1-.2,2.1-7,10.4-5.9.3.1,6.2,1,7.1,6.8-.2-.2,6-1.8,6.6,3.4C578.2,22.5,519.7,22.5,519.7,22.5Z" fill="#686868" opacity="0.04"/>
      <path id="Path_49353_2_" d="M267.7,33.5s-.5-5.5,6.4-4.8c0,.1,2.1-6.4,10.7-5.3a8.708,8.708,0,0,1,6.6,6.7c0,.3,1.9-1.5,4.3,0,.3.4,2.3-3.2,6-1,.1-.2,2.1-6.8,10.2-5.8.3.1,6.1,1,7,6.7-.2-.2,5.9-1.8,6.5,3.3C325.2,33.5,267.7,33.5,267.7,33.5Z" fill="#686868" opacity="0.06"/>
      <path id="Path_47941_2_" d="M194,49.5s-.4-4.3,5.1-3.7c0,.1,1.7-5.1,8.4-4.2a6.745,6.745,0,0,1,5.2,5.3,22.532,22.532,0,0,1,0,2.6Z" fill="#686868" opacity="0.07"/>
      <path id="Path_47942_2_" d="M380.9,49.9s3.5-8.1,12.7-3.5a9.139,9.139,0,0,0,6.5.7c-.1,0,5-1.9,6.6,2.8Z" fill="#686868" opacity="0.04"/>
      <path id="Path_49279_2_" d="M154.9,79.9s3.3-7.8,12.2-3.4a8.609,8.609,0,0,0,6.3.7c-.1,0,4.8-1.8,6.3,2.7C179.7,79.8,154.9,79.9,154.9,79.9Z" fill="#686868" opacity="0.04"/>
    </g>
  </g>
</svg>
